<svg width="782" height="344" viewBox="0 0 782 344" fill="none" xmlns="http://www.w3.org/2000/svg">
<path d="M328.431 337.31V325.542H324.135V322.769H336.381V325.542H332.084V337.31H328.431ZM351.127 330.044C351.127 332.395 350.498 334.244 349.242 335.591C347.985 336.939 346.263 337.613 344.076 337.613C341.882 337.613 340.16 336.932 338.91 335.572C337.66 334.204 337.035 332.362 337.035 330.044C337.035 327.707 337.66 325.861 338.91 324.507C340.16 323.147 341.882 322.466 344.076 322.466C346.263 322.466 347.985 323.143 349.242 324.497C350.498 325.845 351.127 327.694 351.127 330.044ZM347.357 330.035C347.357 329.169 347.266 328.433 347.084 327.828C346.908 327.216 346.67 326.714 346.371 326.324C346.058 325.926 345.704 325.643 345.306 325.474C344.916 325.298 344.509 325.21 344.086 325.21C343.636 325.21 343.23 325.292 342.865 325.454C342.5 325.611 342.149 325.894 341.81 326.304C341.511 326.682 341.267 327.183 341.078 327.808C340.896 328.433 340.804 329.178 340.804 330.044C340.804 330.936 340.892 331.678 341.068 332.271C341.244 332.857 341.485 333.348 341.791 333.745C342.103 334.149 342.458 334.439 342.855 334.615C343.252 334.784 343.663 334.869 344.086 334.869C344.515 334.869 344.932 334.777 345.336 334.595C345.739 334.406 346.088 334.117 346.381 333.726C346.693 333.303 346.934 332.811 347.103 332.251C347.273 331.685 347.357 330.946 347.357 330.035ZM359.564 337.593C357.383 337.593 355.651 336.936 354.369 335.62C353.086 334.299 352.445 332.443 352.445 330.054C352.445 327.749 353.086 325.913 354.369 324.546C355.658 323.173 357.393 322.486 359.574 322.486C360.153 322.486 360.674 322.518 361.136 322.583C361.599 322.648 362.041 322.74 362.465 322.857C362.797 322.954 363.158 323.088 363.549 323.257C363.939 323.426 364.255 323.573 364.496 323.697V327.163H364.125C363.949 327.007 363.728 326.822 363.461 326.607C363.194 326.385 362.891 326.171 362.552 325.962C362.214 325.754 361.84 325.578 361.429 325.435C361.026 325.285 360.603 325.21 360.16 325.21C359.633 325.21 359.148 325.295 358.705 325.464C358.269 325.627 357.852 325.913 357.455 326.324C357.09 326.695 356.791 327.196 356.556 327.828C356.329 328.459 356.215 329.204 356.215 330.064C356.215 330.969 356.335 331.731 356.576 332.349C356.817 332.961 357.133 333.456 357.523 333.833C357.901 334.198 358.321 334.462 358.783 334.624C359.252 334.787 359.717 334.869 360.179 334.869C360.661 334.869 361.12 334.79 361.556 334.634C361.993 334.471 362.36 334.292 362.66 334.097C362.985 333.895 363.272 333.69 363.519 333.482C363.767 333.273 363.982 333.088 364.164 332.925H364.496V336.343C364.229 336.467 363.92 336.61 363.568 336.773C363.217 336.929 362.855 337.063 362.484 337.173C362.028 337.31 361.602 337.414 361.205 337.486C360.808 337.557 360.261 337.593 359.564 337.593ZM365.092 337.31L370.004 322.769H373.988L378.9 337.31H375.14L374.232 334.341H369.662L368.754 337.31H365.092ZM373.431 331.704L371.947 326.91L370.463 331.704H373.431ZM392.806 337.31H389.291L383.685 327.173V337.31H380.345V322.769H384.828L389.467 331.099V322.769H392.806V337.31ZM398.549 337.31V325.542H394.252V322.769H406.498V325.542H402.201V337.31H398.549ZM415.248 337.31H407.416V334.771H409.506V325.308H407.416V322.769H415.248V325.308H413.158V334.771H415.248V337.31ZM430.131 337.31H426.615L421.01 327.173V337.31H417.67V322.769H422.152L426.791 331.099V322.769H430.131V337.31ZM437.572 337.574C436.459 337.574 435.479 337.466 434.633 337.251C433.793 337.036 433.011 336.77 432.289 336.451V332.994H432.621C433.35 333.612 434.154 334.087 435.033 334.419C435.912 334.751 436.765 334.917 437.592 334.917C437.8 334.917 438.073 334.895 438.412 334.849C438.757 334.803 439.034 334.732 439.242 334.634C439.496 334.523 439.711 334.37 439.886 334.175C440.062 333.973 440.15 333.71 440.15 333.384C440.15 333.02 440.007 332.723 439.72 332.495C439.434 332.268 439.092 332.102 438.695 331.997C438.2 331.867 437.67 331.744 437.103 331.626C436.543 331.509 436.019 331.366 435.531 331.197C434.405 330.8 433.597 330.266 433.109 329.595C432.621 328.925 432.377 328.085 432.377 327.076C432.377 325.715 432.953 324.615 434.105 323.775C435.258 322.928 436.696 322.505 438.422 322.505C439.288 322.505 440.147 322.593 441 322.769C441.859 322.945 442.627 323.182 443.304 323.482V326.802H442.982C442.442 326.34 441.781 325.949 441 325.63C440.225 325.311 439.427 325.152 438.607 325.152C438.288 325.152 438.002 325.175 437.748 325.22C437.494 325.266 437.227 325.354 436.947 325.484C436.719 325.588 436.521 325.744 436.351 325.953C436.189 326.154 436.107 326.382 436.107 326.636C436.107 327.007 436.237 327.303 436.498 327.525C436.765 327.74 437.276 327.935 438.031 328.111C438.519 328.221 438.988 328.329 439.437 328.433C439.893 328.537 440.378 328.68 440.892 328.863C441.901 329.227 442.65 329.719 443.138 330.337C443.633 330.949 443.881 331.76 443.881 332.769C443.881 334.214 443.311 335.376 442.172 336.255C441.039 337.134 439.506 337.574 437.572 337.574Z" fill="white"/>
<path d="M105.43 285.714H79.6447V208.595L60.8599 258.367H43.1842L24.3994 208.595V285.714H0V169.372H29.8754L52.7499 226.8L75.5551 169.372H105.43V285.714Z" fill="white"/>
<path d="M200.186 241.88C200.186 256.309 196.674 267.691 189.65 276.025C182.672 284.308 172.783 288.449 159.983 288.449C147.275 288.449 137.385 284.308 130.315 276.025C123.291 267.691 119.779 256.309 119.779 241.88C119.779 227.295 123.291 215.888 130.315 207.657C137.385 199.375 147.275 195.234 159.983 195.234C172.737 195.234 182.626 199.401 189.65 207.736C196.674 216.018 200.186 227.399 200.186 241.88ZM175.302 242.037C175.302 236.828 174.909 232.504 174.123 229.066C173.384 225.576 172.344 222.79 171.004 220.706C169.571 218.518 167.954 217.008 166.152 216.174C164.35 215.289 162.293 214.846 159.983 214.846C157.811 214.846 155.847 215.237 154.091 216.018C152.335 216.747 150.717 218.18 149.239 220.315C147.852 222.347 146.743 225.134 145.911 228.676C145.08 232.218 144.664 236.671 144.664 242.037C144.664 247.402 145.056 251.751 145.842 255.085C146.628 258.367 147.644 260.997 148.892 262.977C150.186 265.008 151.803 266.493 153.744 267.43C155.685 268.368 157.834 268.837 160.191 268.837C162.131 268.837 164.095 268.368 166.083 267.43C168.116 266.493 169.733 265.086 170.935 263.211C172.367 260.971 173.453 258.289 174.193 255.163C174.932 251.986 175.302 247.61 175.302 242.037Z" fill="white"/>
<path d="M286 285.714H261.601V242.193C261.601 238.651 261.462 235.135 261.185 231.645C260.954 228.103 260.492 225.498 259.798 223.831C258.967 221.852 257.765 220.446 256.194 219.612C254.623 218.727 252.52 218.284 249.886 218.284C247.899 218.284 245.889 218.701 243.856 219.534C241.822 220.367 239.65 221.696 237.34 223.519V285.714H213.079V197.969H237.34V207.657C241.314 203.855 245.173 200.886 248.916 198.75C252.705 196.614 256.887 195.547 261.462 195.547C269.41 195.547 275.487 198.386 279.692 204.063C283.898 209.689 286 217.867 286 228.598V285.714Z" fill="white"/>
<path d="M333.829 287.433C323.939 287.433 316.731 285.141 312.202 280.557C307.719 275.973 305.478 268.472 305.478 258.054V217.034H296.19V197.969H305.478V172.888H329.739V197.969H353.099V217.034H329.739V248.131C329.739 251.204 329.762 253.887 329.808 256.179C329.854 258.471 330.224 260.529 330.917 262.352C331.564 264.175 332.696 265.633 334.314 266.727C335.977 267.769 338.38 268.29 341.523 268.29C342.817 268.29 344.503 267.977 346.583 267.352C348.709 266.727 350.187 266.154 351.019 265.633H353.099V284.933C350.465 285.714 347.669 286.313 344.711 286.73C341.754 287.198 338.126 287.433 333.829 287.433Z" fill="white"/>
<path d="M402.937 288.058C388.242 288.058 376.967 284.099 369.111 276.182C361.301 268.264 357.396 256.986 357.396 242.349C357.396 228.025 361.047 216.591 368.348 208.048C375.65 199.505 385.862 195.234 398.986 195.234C410.909 195.234 419.874 198.854 425.881 206.095C431.888 213.335 434.892 223.701 434.892 237.192V247.037H381.726C381.957 251.1 382.72 254.512 384.014 257.273C385.308 259.982 387.018 262.143 389.143 263.758C391.223 265.373 393.649 266.545 396.421 267.274C399.194 267.951 402.221 268.29 405.502 268.29C408.321 268.29 411.093 267.951 413.82 267.274C416.546 266.545 419.042 265.607 421.306 264.461C423.293 263.472 425.119 262.404 426.782 261.258C428.492 260.112 429.878 259.096 430.941 258.211H433.506V280.791C431.519 281.677 429.693 282.51 428.03 283.292C426.412 284.021 424.171 284.776 421.306 285.558C418.672 286.339 415.946 286.938 413.127 287.355C410.354 287.824 406.958 288.058 402.937 288.058ZM410.978 230.551C410.839 224.769 409.638 220.367 407.373 217.346C405.155 214.325 401.736 212.814 397.115 212.814C392.401 212.814 388.704 214.403 386.024 217.581C383.39 220.758 381.934 225.082 381.657 230.551H410.978Z" fill="white"/>
<path d="M522.231 287.824C514.329 287.824 507.374 286.964 501.367 285.245C495.405 283.526 489.86 281.39 484.731 278.838V251.178H487.088C492.263 256.127 497.97 259.93 504.209 262.586C510.447 265.243 516.501 266.571 522.37 266.571C523.848 266.571 525.789 266.389 528.192 266.024C530.641 265.659 532.605 265.086 534.084 264.305C535.886 263.42 537.411 262.195 538.659 260.633C539.907 259.018 540.531 256.908 540.531 254.304C540.531 251.387 539.514 249.017 537.481 247.194C535.447 245.37 533.021 244.042 530.202 243.209C526.69 242.167 522.924 241.177 518.904 240.24C514.93 239.302 511.21 238.156 507.744 236.802C499.749 233.624 494.019 229.353 490.553 223.988C487.088 218.622 485.355 211.903 485.355 203.829C485.355 192.942 489.444 184.139 497.624 177.419C505.803 170.648 516.016 167.262 528.262 167.262C534.408 167.262 540.507 167.965 546.561 169.372C552.661 170.778 558.114 172.679 562.92 175.075V201.641H560.632C556.797 197.943 552.106 194.817 546.561 192.265C541.062 189.713 535.401 188.436 529.579 188.436C527.314 188.436 525.281 188.619 523.479 188.983C521.676 189.348 519.782 190.051 517.795 191.093C516.177 191.926 514.768 193.177 513.566 194.843C512.411 196.458 511.834 198.281 511.834 200.313C511.834 203.282 512.758 205.652 514.606 207.423C516.501 209.142 520.128 210.705 525.489 212.111C528.955 212.997 532.282 213.856 535.47 214.69C538.705 215.523 542.148 216.669 545.799 218.128C552.961 221.045 558.276 224.977 561.741 229.926C565.254 234.822 567.009 241.307 567.009 249.381C567.009 260.945 562.966 270.243 554.879 277.275C546.838 284.308 535.956 287.824 522.231 287.824Z" fill="white"/>
<path d="M603.193 285.714H578.932V197.969H603.193V285.714ZM603.886 185.467H578.239V164.137H603.886V185.467Z" fill="white"/>
<path d="M664.677 262.821V244.537C660.564 245.006 657.237 245.423 654.695 245.787C652.153 246.1 649.658 246.751 647.209 247.741C645.083 248.574 643.419 249.85 642.218 251.569C641.063 253.236 640.485 255.476 640.485 258.289C640.485 262.404 641.456 265.243 643.396 266.805C645.383 268.316 648.295 269.071 652.13 269.071C654.256 269.071 656.428 268.524 658.646 267.43C660.864 266.337 662.874 264.8 664.677 262.821ZM664.677 276.416C663.013 277.979 661.511 279.385 660.171 280.635C658.877 281.885 657.121 283.135 654.903 284.386C652.731 285.584 650.605 286.495 648.526 287.12C646.493 287.745 643.627 288.058 639.931 288.058C633.045 288.058 627.315 285.453 622.74 280.245C618.211 275.036 615.947 268.472 615.947 260.555C615.947 254.043 617.102 248.782 619.413 244.771C621.723 240.761 625.051 237.583 629.394 235.239C633.784 232.843 639.029 231.176 645.129 230.238C651.229 229.301 657.791 228.572 664.815 228.051V227.582C664.815 222.737 663.221 219.404 660.032 217.581C656.89 215.705 652.153 214.768 645.822 214.768C642.957 214.768 639.607 215.367 635.772 216.565C631.936 217.711 628.193 219.195 624.542 221.019H622.463V199.844C624.866 199.063 628.747 198.151 634.108 197.109C639.468 196.015 644.875 195.468 650.328 195.468C663.729 195.468 673.48 197.995 679.58 203.048C685.726 208.048 688.799 215.705 688.799 226.019V285.714H664.677V276.416ZM684.57 159.683C684.108 168.382 682.191 174.763 678.817 178.826C675.444 182.837 670.753 184.842 664.746 184.842C662.528 184.842 660.425 184.347 658.438 183.358C656.451 182.316 654.741 181.3 653.309 180.31C651.922 179.321 650.374 178.331 648.664 177.341C647.001 176.299 645.591 175.779 644.436 175.779C642.126 175.779 640.554 176.612 639.723 178.279C638.891 179.894 638.382 182.238 638.198 185.311H623.641C623.918 177.706 625.813 171.637 629.325 167.106C632.837 162.522 637.528 160.23 643.396 160.23C645.615 160.23 647.671 160.673 649.566 161.558C651.46 162.444 653.286 163.459 655.042 164.605C656.428 165.491 657.953 166.428 659.616 167.418C661.28 168.408 662.643 168.903 663.706 168.903C665.924 168.903 667.496 168.069 668.42 166.402C669.39 164.736 669.922 162.496 670.014 159.683H684.57Z" fill="white"/>
<path d="M781.475 241.88C781.475 256.309 777.963 267.691 770.939 276.025C763.961 284.308 754.072 288.449 741.271 288.449C728.563 288.449 718.674 284.308 711.604 276.025C704.58 267.691 701.068 256.309 701.068 241.88C701.068 227.295 704.58 215.888 711.604 207.657C718.674 199.375 728.563 195.234 741.271 195.234C754.026 195.234 763.915 199.401 770.939 207.736C777.963 216.018 781.475 227.399 781.475 241.88ZM756.59 242.037C756.59 236.828 756.198 232.504 755.412 229.066C754.673 225.576 753.633 222.79 752.293 220.706C750.86 218.518 749.243 217.008 747.441 216.174C745.638 215.289 743.582 214.846 741.271 214.846C739.099 214.846 737.136 215.237 735.379 216.018C733.623 216.747 732.006 218.18 730.527 220.315C729.141 222.347 728.032 225.134 727.2 228.676C726.368 232.218 725.952 236.671 725.952 242.037C725.952 247.402 726.345 251.751 727.131 255.085C727.916 258.367 728.933 260.997 730.181 262.977C731.475 265.008 733.092 266.493 735.033 267.43C736.974 268.368 739.123 268.837 741.479 268.837C743.42 268.837 745.384 268.368 747.371 267.43C749.405 266.493 751.022 265.086 752.223 263.211C753.656 260.971 754.742 258.289 755.481 255.163C756.221 251.986 756.59 247.61 756.59 242.037Z" fill="white"/>
<path d="M370.202 128.047C437.915 103.626 526.719 57.0036 653.819 107.511C622.183 59.2234 525.165 -6.93483 370.202 128.047Z" fill="white" stroke="white"/>
<path d="M374.642 99.7407C506.738 0.390867 575.561 39.243 625.513 60.334C580.001 19.7392 522.833 -46.2313 374.642 53.1182C247.541 129.157 211.464 121.941 136.536 116.391C244.211 182.994 348.814 119.166 374.642 99.7407Z" fill="white" stroke="white"/>
<path d="M482.941 142.148C481.114 142.148 479.443 141.87 477.928 141.315C476.414 140.76 475.113 139.916 474.026 138.783C472.939 137.638 472.107 136.222 471.528 134.533C470.95 132.845 470.661 130.903 470.661 128.706C470.661 126.624 470.95 124.763 471.528 123.121C472.118 121.467 472.956 120.056 474.043 118.889C475.096 117.755 476.391 116.882 477.928 116.27C479.466 115.657 481.149 115.35 482.976 115.35C483.843 115.35 484.676 115.414 485.473 115.541C486.271 115.668 487.034 115.842 487.763 116.061C488.341 116.235 488.983 116.478 489.688 116.79C490.405 117.09 490.983 117.351 491.423 117.57V121.716H491.128C490.7 121.334 490.255 120.976 489.792 120.64C489.341 120.293 488.699 119.923 487.867 119.53C487.173 119.183 486.375 118.894 485.473 118.663C484.571 118.432 483.6 118.316 482.559 118.316C480.073 118.316 478.061 119.253 476.524 121.126C474.997 122.999 474.234 125.491 474.234 128.601C474.234 130.336 474.436 131.851 474.841 133.146C475.246 134.441 475.83 135.539 476.593 136.441C477.333 137.332 478.223 138.014 479.264 138.488C480.316 138.95 481.496 139.182 482.802 139.182C483.774 139.182 484.739 139.112 485.699 138.974C486.659 138.835 487.468 138.627 488.127 138.349V131.671H482.161V128.654H491.527V139.927C491.087 140.124 490.497 140.373 489.757 140.673C489.029 140.974 488.347 141.211 487.711 141.384C486.867 141.639 486.104 141.83 485.421 141.957C484.739 142.084 483.912 142.148 482.941 142.148Z" fill="white"/>
<path d="M515.861 141.645H511.403L503.217 131.377H499.297V141.645H495.863V115.819H502.523C504.003 115.819 505.24 115.9 506.235 116.061C507.241 116.223 508.195 116.599 509.097 117.189C509.999 117.767 510.71 118.513 511.23 119.426C511.762 120.34 512.028 121.473 512.028 122.826C512.028 124.722 511.548 126.306 510.588 127.578C509.629 128.85 508.322 129.792 506.668 130.405L515.861 141.645ZM508.438 123.086C508.438 122.334 508.305 121.669 508.039 121.091C507.773 120.502 507.362 120.022 506.807 119.652C506.321 119.328 505.755 119.102 505.107 118.975C504.46 118.837 503.656 118.767 502.696 118.767H499.297V128.515H502.315C503.298 128.515 504.182 128.428 504.969 128.255C505.755 128.081 506.426 127.723 506.981 127.179C507.478 126.694 507.842 126.115 508.073 125.445C508.316 124.774 508.438 123.988 508.438 123.086Z" fill="white"/>
<path d="M526.944 142.182C525.429 142.182 524.105 141.986 522.972 141.593C521.839 141.188 520.874 140.592 520.076 139.806C519.174 138.904 518.538 137.829 518.168 136.58C517.798 135.32 517.613 133.77 517.613 131.932V115.819H521.047V131.932C521.047 133.123 521.122 134.129 521.272 134.95C521.423 135.759 521.718 136.487 522.157 137.135C522.62 137.829 523.244 138.355 524.03 138.713C524.828 139.072 525.799 139.251 526.944 139.251C528.019 139.251 528.973 139.072 529.806 138.713C530.639 138.355 531.286 137.829 531.749 137.135C532.176 136.476 532.465 135.747 532.616 134.95C532.778 134.152 532.859 133.175 532.859 132.018V115.819H536.293V131.932C536.293 133.724 536.108 135.262 535.738 136.545C535.379 137.829 534.743 138.916 533.83 139.806C533.009 140.604 532.049 141.199 530.951 141.593C529.864 141.986 528.528 142.182 526.944 142.182Z" fill="white"/>
<path d="M557.54 123.606C557.54 124.728 557.338 125.792 556.933 126.798C556.54 127.792 555.99 128.642 555.285 129.347C554.395 130.226 553.348 130.891 552.146 131.342C550.943 131.793 549.423 132.018 547.584 132.018H544.67V141.645H541.236V115.819H547.723C549.249 115.819 550.55 115.946 551.625 116.2C552.701 116.455 553.649 116.865 554.47 117.432C555.43 118.091 556.181 118.929 556.725 119.947C557.268 120.953 557.54 122.172 557.54 123.606ZM553.967 123.693C553.967 122.803 553.811 122.028 553.499 121.369C553.198 120.71 552.735 120.172 552.111 119.756C551.568 119.397 550.932 119.143 550.203 118.993C549.486 118.842 548.59 118.767 547.515 118.767H544.67V129.087H547.012C548.399 129.087 549.521 128.977 550.377 128.758C551.232 128.526 551.943 128.122 552.51 127.543C553.019 127.023 553.389 126.457 553.62 125.844C553.851 125.231 553.967 124.514 553.967 123.693Z" fill="white"/>
<path d="M579.099 118.784C580.082 119.918 580.845 121.323 581.389 122.999C581.932 124.676 582.204 126.59 582.204 128.74C582.204 130.833 581.938 132.724 581.406 134.412C580.874 136.1 580.105 137.517 579.099 138.661C578.047 139.864 576.815 140.754 575.405 141.332C574.006 141.899 572.462 142.182 570.774 142.182C569.028 142.182 567.455 141.887 566.056 141.298C564.657 140.708 563.454 139.829 562.448 138.661C561.454 137.517 560.691 136.106 560.159 134.429C559.627 132.753 559.361 130.856 559.361 128.74C559.361 126.566 559.627 124.658 560.159 123.017C560.702 121.375 561.471 119.964 562.466 118.784C563.46 117.64 564.657 116.773 566.056 116.183C567.467 115.582 569.039 115.281 570.774 115.281C572.531 115.281 574.115 115.587 575.526 116.2C576.937 116.813 578.128 117.674 579.099 118.784ZM578.631 128.74C578.631 127.029 578.446 125.514 578.076 124.196C577.706 122.878 577.185 121.785 576.515 120.918C575.833 120.028 575.006 119.363 574.035 118.923C573.075 118.472 571.994 118.247 570.791 118.247C569.542 118.247 568.45 118.466 567.513 118.906C566.588 119.334 565.767 120.004 565.05 120.918C564.368 121.797 563.842 122.901 563.472 124.231C563.113 125.56 562.934 127.064 562.934 128.74C562.934 132.128 563.645 134.724 565.067 136.528C566.49 138.32 568.398 139.216 570.791 139.216C573.185 139.216 575.087 138.32 576.497 136.528C577.92 134.724 578.631 132.128 578.631 128.74Z" fill="white"/>
<path d="M0 307.32H781.475" stroke="white"/>
</svg>
