<svg width="800" height="308" viewBox="0 0 800 308" fill="none" xmlns="http://www.w3.org/2000/svg">
<mask id="path-1-outside-1_2027_590" maskUnits="userSpaceOnUse" x="0" y="167.792" width="800" height="141" fill="black">
<rect fill="white" y="167.792" width="800" height="141"/>
<path d="M88.8152 218.607C88.8152 224.422 87.9723 229.957 86.2865 235.212C84.6007 240.468 82.1742 244.857 79.0069 248.379C77.0657 250.559 74.9201 252.572 72.5702 254.417C70.2714 256.262 67.7171 257.828 64.9074 259.113C62.0978 260.399 59.0326 261.406 55.7121 262.133C52.4427 262.859 48.7645 263.223 44.6777 263.223H29.6587V304.065H1V179.191H45.2908C51.8807 179.191 57.5512 179.862 62.3021 181.204C67.1041 182.49 71.4463 184.558 75.3288 187.41C79.6199 190.541 82.9405 194.734 85.2904 199.989C87.6403 205.189 88.8152 211.395 88.8152 218.607ZM59.3902 219.362C59.3902 215.84 58.624 212.821 57.0914 210.305C55.5589 207.733 53.7198 205.972 51.5742 205.021C48.8667 203.735 46.2614 203.008 43.7582 202.841C41.3061 202.617 37.9601 202.505 33.72 202.505H29.6587V239.909H31.651C34.3586 239.909 36.9128 239.881 39.3138 239.825C41.7148 239.769 43.8093 239.573 45.5973 239.238C47.1298 238.958 48.739 238.427 50.4248 237.644C52.1617 236.806 53.4899 235.883 54.4094 234.877C56.3507 232.808 57.6534 230.656 58.3175 228.419C59.0326 226.183 59.3902 223.164 59.3902 219.362Z"/>
<path d="M185.213 257.017C185.213 272.504 181.33 284.72 173.565 293.665C165.852 302.555 154.919 307 140.769 307C126.72 307 115.788 302.555 107.972 293.665C100.207 284.72 96.3248 272.504 96.3248 257.017C96.3248 241.362 100.207 229.118 107.972 220.284C115.788 211.395 126.72 206.95 140.769 206.95C154.868 206.95 165.8 211.423 173.565 220.368C181.33 229.258 185.213 241.474 185.213 257.017ZM157.703 257.185C157.703 251.594 157.269 246.953 156.401 243.263C155.583 239.517 154.434 236.526 152.953 234.29C151.369 231.942 149.581 230.32 147.589 229.426C145.596 228.475 143.323 228 140.769 228C138.368 228 136.197 228.419 134.255 229.258C132.314 230.041 130.526 231.578 128.891 233.87C127.359 236.051 126.133 239.042 125.213 242.844C124.294 246.646 123.834 251.426 123.834 257.185C123.834 262.943 124.268 267.612 125.137 271.19C126.005 274.712 127.129 277.536 128.508 279.66C129.939 281.841 131.727 283.434 133.872 284.44C136.018 285.447 138.393 285.95 140.999 285.95C143.144 285.95 145.315 285.447 147.512 284.44C149.76 283.434 151.548 281.924 152.876 279.912C154.46 277.508 155.66 274.628 156.477 271.274C157.295 267.863 157.703 263.167 157.703 257.185Z"/>
<path d="M257.243 237.644H255.021C253.999 237.253 252.517 236.973 250.576 236.806C248.635 236.582 246.489 236.47 244.139 236.47C241.33 236.47 238.367 236.917 235.251 237.812C232.186 238.707 229.197 239.769 226.285 240.999V304.065H199.466V209.885H226.285V223.387C227.511 222.157 229.197 220.62 231.343 218.775C233.539 216.874 235.532 215.364 237.32 214.246C239.261 212.96 241.509 211.87 244.063 210.976C246.668 210.025 249.12 209.55 251.419 209.55C252.287 209.55 253.258 209.578 254.331 209.634C255.404 209.69 256.374 209.774 257.243 209.885V237.644Z"/>
<path d="M300.461 305.91C289.529 305.91 281.559 303.45 276.553 298.53C271.598 293.61 269.12 285.559 269.12 274.377V230.348H258.852V209.885H269.12V182.965H295.94V209.885H321.763V230.348H295.94V263.726C295.94 267.025 295.965 269.904 296.016 272.364C296.067 274.824 296.476 277.032 297.242 278.989C297.958 280.946 299.209 282.512 300.997 283.686C302.836 284.804 305.493 285.363 308.966 285.363C310.397 285.363 312.261 285.027 314.56 284.357C316.91 283.686 318.545 283.071 319.464 282.512H321.763V303.226C318.851 304.065 315.761 304.708 312.491 305.155C309.222 305.658 305.212 305.91 300.461 305.91Z"/>
<path d="M415.402 257.017C415.402 272.504 411.52 284.72 403.755 293.665C396.041 302.555 385.109 307 370.958 307C356.91 307 345.978 302.555 338.162 293.665C330.397 284.72 326.514 272.504 326.514 257.017C326.514 241.362 330.397 229.118 338.162 220.284C345.978 211.395 356.91 206.95 370.958 206.95C385.058 206.95 395.99 211.423 403.755 220.368C411.52 229.258 415.402 241.474 415.402 257.017ZM387.893 257.185C387.893 251.594 387.459 246.953 386.59 243.263C385.773 239.517 384.623 236.526 383.142 234.29C381.558 231.942 379.77 230.32 377.778 229.426C375.786 228.475 373.512 228 370.958 228C368.557 228 366.386 228.419 364.445 229.258C362.504 230.041 360.716 231.578 359.081 233.87C357.548 236.051 356.322 239.042 355.403 242.844C354.483 246.646 354.023 251.426 354.023 257.185C354.023 262.943 354.458 267.612 355.326 271.19C356.195 274.712 357.318 277.536 358.698 279.66C360.128 281.841 361.916 283.434 364.062 284.44C366.207 285.447 368.583 285.95 371.188 285.95C373.334 285.95 375.505 285.447 377.701 284.44C379.949 283.434 381.737 281.924 383.065 279.912C384.649 277.508 385.849 274.628 386.667 271.274C387.484 267.863 387.893 263.167 387.893 257.185Z"/>
<path d="M512.413 306.329C503.677 306.329 495.989 305.406 489.348 303.561C482.758 301.716 476.628 299.424 470.957 296.685V266.997H473.563C479.284 272.308 485.593 276.389 492.49 279.241C499.386 282.092 506.078 283.518 512.566 283.518C514.201 283.518 516.346 283.322 519.003 282.931C521.71 282.539 523.881 281.924 525.516 281.086C527.508 280.135 529.194 278.822 530.573 277.144C531.953 275.411 532.642 273.147 532.642 270.351C532.642 267.22 531.519 264.676 529.271 262.72C527.023 260.763 524.341 259.337 521.225 258.443C517.342 257.324 513.179 256.262 508.735 255.256C504.341 254.249 500.229 253.019 496.398 251.566C487.56 248.155 481.225 243.571 477.394 237.812C473.563 232.053 471.647 224.841 471.647 216.175C471.647 204.49 476.168 195.041 485.21 187.829C494.252 180.561 505.542 176.927 519.079 176.927C525.874 176.927 532.617 177.682 539.309 179.191C546.052 180.701 552.08 182.741 557.393 185.313V213.827H554.864C550.624 209.857 545.439 206.503 539.309 203.763C533.23 201.024 526.972 199.654 520.535 199.654C518.032 199.654 515.784 199.85 513.792 200.241C511.8 200.632 509.705 201.387 507.509 202.505C505.721 203.4 504.162 204.742 502.834 206.531C501.557 208.264 500.919 210.221 500.919 212.401C500.919 215.588 501.94 218.132 503.984 220.033C506.078 221.878 510.088 223.555 516.014 225.065C519.846 226.015 523.524 226.938 527.049 227.832C530.625 228.727 534.43 229.957 538.466 231.522C546.384 234.653 552.259 238.874 556.09 244.186C559.973 249.441 561.914 256.402 561.914 265.068C561.914 277.48 557.444 287.46 548.504 295.007C539.616 302.555 527.585 306.329 512.413 306.329Z"/>
<path d="M601.914 304.065H575.094V209.885H601.914V304.065ZM602.68 196.467H574.328V173.572H602.68V196.467Z"/>
<path d="M669.882 279.492V259.868C665.336 260.371 661.658 260.819 658.848 261.21C656.038 261.546 653.28 262.244 650.572 263.307C648.222 264.201 646.383 265.571 645.055 267.416C643.778 269.205 643.139 271.609 643.139 274.628C643.139 279.045 644.212 282.092 646.358 283.769C648.554 285.391 651.773 286.202 656.013 286.202C658.363 286.202 660.764 285.615 663.216 284.44C665.668 283.266 667.89 281.617 669.882 279.492ZM669.882 294.085C668.043 295.762 666.383 297.272 664.902 298.613C663.471 299.955 661.53 301.297 659.078 302.639C656.677 303.925 654.327 304.903 652.028 305.574C649.78 306.245 646.613 306.58 642.526 306.58C634.915 306.58 628.58 303.785 623.523 298.194C618.516 292.603 616.013 285.559 616.013 277.06C616.013 270.072 617.29 264.425 619.845 260.12C622.399 255.815 626.077 252.404 630.879 249.888C635.732 247.317 641.53 245.528 648.273 244.521C655.017 243.515 662.271 242.732 670.036 242.173V241.67C670.036 236.47 668.273 232.892 664.748 230.935C661.275 228.922 656.038 227.916 649.04 227.916C645.872 227.916 642.169 228.559 637.929 229.845C633.689 231.075 629.551 232.668 625.515 234.625H623.216V211.898C625.873 211.059 630.164 210.081 636.09 208.963C642.016 207.789 647.992 207.202 654.021 207.202C668.835 207.202 679.614 209.913 686.357 215.336C693.152 220.704 696.549 228.922 696.549 239.993V304.065H669.882V294.085ZM691.875 168.792C691.364 178.129 689.244 184.978 685.514 189.339C681.785 193.644 676.6 195.796 669.959 195.796C667.507 195.796 665.183 195.265 662.986 194.203C660.789 193.085 658.899 191.994 657.316 190.932C655.783 189.87 654.072 188.808 652.181 187.745C650.342 186.627 648.784 186.068 647.507 186.068C644.953 186.068 643.216 186.963 642.297 188.752C641.377 190.485 640.815 193.001 640.611 196.299H624.519C624.825 188.137 626.92 181.623 630.802 176.759C634.685 171.839 639.87 169.379 646.358 169.379C648.81 169.379 651.083 169.854 653.178 170.805C655.272 171.755 657.29 172.845 659.231 174.075C660.764 175.026 662.45 176.032 664.289 177.095C666.128 178.157 667.635 178.688 668.81 178.688C671.262 178.688 672.999 177.793 674.02 176.004C675.093 174.215 675.681 171.811 675.783 168.792H691.875Z"/>
<path d="M799 257.017C799 272.504 795.118 284.72 787.353 293.665C779.639 302.555 768.707 307 754.556 307C740.508 307 729.575 302.555 721.759 293.665C713.994 284.72 710.112 272.504 710.112 257.017C710.112 241.362 713.994 229.118 721.759 220.284C729.575 211.395 740.508 206.95 754.556 206.95C768.655 206.95 779.588 211.423 787.353 220.368C795.118 229.258 799 241.474 799 257.017ZM771.491 257.185C771.491 251.594 771.056 246.953 770.188 243.263C769.371 239.517 768.221 236.526 766.74 234.29C765.156 231.942 763.368 230.32 761.376 229.426C759.384 228.475 757.11 228 754.556 228C752.155 228 749.984 228.419 748.043 229.258C746.101 230.041 744.313 231.578 742.679 233.87C741.146 236.051 739.92 239.042 739.001 242.844C738.081 246.646 737.621 251.426 737.621 257.185C737.621 262.943 738.055 267.612 738.924 271.19C739.792 274.712 740.916 277.536 742.296 279.66C743.726 281.841 745.514 283.434 747.659 284.44C749.805 285.447 752.181 285.95 754.786 285.95C756.931 285.95 759.103 285.447 761.299 284.44C763.547 283.434 765.335 281.924 766.663 279.912C768.247 277.508 769.447 274.628 770.265 271.274C771.082 267.863 771.491 263.167 771.491 257.185Z"/>
</mask>
<path d="M88.8152 218.607C88.8152 224.422 87.9723 229.957 86.2865 235.212C84.6007 240.468 82.1742 244.857 79.0069 248.379C77.0657 250.559 74.9201 252.572 72.5702 254.417C70.2714 256.262 67.7171 257.828 64.9074 259.113C62.0978 260.399 59.0326 261.406 55.7121 262.133C52.4427 262.859 48.7645 263.223 44.6777 263.223H29.6587V304.065H1V179.191H45.2908C51.8807 179.191 57.5512 179.862 62.3021 181.204C67.1041 182.49 71.4463 184.558 75.3288 187.41C79.6199 190.541 82.9405 194.734 85.2904 199.989C87.6403 205.189 88.8152 211.395 88.8152 218.607ZM59.3902 219.362C59.3902 215.84 58.624 212.821 57.0914 210.305C55.5589 207.733 53.7198 205.972 51.5742 205.021C48.8667 203.735 46.2614 203.008 43.7582 202.841C41.3061 202.617 37.9601 202.505 33.72 202.505H29.6587V239.909H31.651C34.3586 239.909 36.9128 239.881 39.3138 239.825C41.7148 239.769 43.8093 239.573 45.5973 239.238C47.1298 238.958 48.739 238.427 50.4248 237.644C52.1617 236.806 53.4899 235.883 54.4094 234.877C56.3507 232.808 57.6534 230.656 58.3175 228.419C59.0326 226.183 59.3902 223.164 59.3902 219.362Z" fill="#00A0E0"/>
<path d="M185.213 257.017C185.213 272.504 181.33 284.72 173.565 293.665C165.852 302.555 154.919 307 140.769 307C126.72 307 115.788 302.555 107.972 293.665C100.207 284.72 96.3248 272.504 96.3248 257.017C96.3248 241.362 100.207 229.118 107.972 220.284C115.788 211.395 126.72 206.95 140.769 206.95C154.868 206.95 165.8 211.423 173.565 220.368C181.33 229.258 185.213 241.474 185.213 257.017ZM157.703 257.185C157.703 251.594 157.269 246.953 156.401 243.263C155.583 239.517 154.434 236.526 152.953 234.29C151.369 231.942 149.581 230.32 147.589 229.426C145.596 228.475 143.323 228 140.769 228C138.368 228 136.197 228.419 134.255 229.258C132.314 230.041 130.526 231.578 128.891 233.87C127.359 236.051 126.133 239.042 125.213 242.844C124.294 246.646 123.834 251.426 123.834 257.185C123.834 262.943 124.268 267.612 125.137 271.19C126.005 274.712 127.129 277.536 128.508 279.66C129.939 281.841 131.727 283.434 133.872 284.44C136.018 285.447 138.393 285.95 140.999 285.95C143.144 285.95 145.315 285.447 147.512 284.44C149.76 283.434 151.548 281.924 152.876 279.912C154.46 277.508 155.66 274.628 156.477 271.274C157.295 267.863 157.703 263.167 157.703 257.185Z" fill="#00A0E0"/>
<path d="M257.243 237.644H255.021C253.999 237.253 252.517 236.973 250.576 236.806C248.635 236.582 246.489 236.47 244.139 236.47C241.33 236.47 238.367 236.917 235.251 237.812C232.186 238.707 229.197 239.769 226.285 240.999V304.065H199.466V209.885H226.285V223.387C227.511 222.157 229.197 220.62 231.343 218.775C233.539 216.874 235.532 215.364 237.32 214.246C239.261 212.96 241.509 211.87 244.063 210.976C246.668 210.025 249.12 209.55 251.419 209.55C252.287 209.55 253.258 209.578 254.331 209.634C255.404 209.69 256.374 209.774 257.243 209.885V237.644Z" fill="#00A0E0"/>
<path d="M300.461 305.91C289.529 305.91 281.559 303.45 276.553 298.53C271.598 293.61 269.12 285.559 269.12 274.377V230.348H258.852V209.885H269.12V182.965H295.94V209.885H321.763V230.348H295.94V263.726C295.94 267.025 295.965 269.904 296.016 272.364C296.067 274.824 296.476 277.032 297.242 278.989C297.958 280.946 299.209 282.512 300.997 283.686C302.836 284.804 305.493 285.363 308.966 285.363C310.397 285.363 312.261 285.027 314.56 284.357C316.91 283.686 318.545 283.071 319.464 282.512H321.763V303.226C318.851 304.065 315.761 304.708 312.491 305.155C309.222 305.658 305.212 305.91 300.461 305.91Z" fill="#00A0E0"/>
<path d="M415.402 257.017C415.402 272.504 411.52 284.72 403.755 293.665C396.041 302.555 385.109 307 370.958 307C356.91 307 345.978 302.555 338.162 293.665C330.397 284.72 326.514 272.504 326.514 257.017C326.514 241.362 330.397 229.118 338.162 220.284C345.978 211.395 356.91 206.95 370.958 206.95C385.058 206.95 395.99 211.423 403.755 220.368C411.52 229.258 415.402 241.474 415.402 257.017ZM387.893 257.185C387.893 251.594 387.459 246.953 386.59 243.263C385.773 239.517 384.623 236.526 383.142 234.29C381.558 231.942 379.77 230.32 377.778 229.426C375.786 228.475 373.512 228 370.958 228C368.557 228 366.386 228.419 364.445 229.258C362.504 230.041 360.716 231.578 359.081 233.87C357.548 236.051 356.322 239.042 355.403 242.844C354.483 246.646 354.023 251.426 354.023 257.185C354.023 262.943 354.458 267.612 355.326 271.19C356.195 274.712 357.318 277.536 358.698 279.66C360.128 281.841 361.916 283.434 364.062 284.44C366.207 285.447 368.583 285.95 371.188 285.95C373.334 285.95 375.505 285.447 377.701 284.44C379.949 283.434 381.737 281.924 383.065 279.912C384.649 277.508 385.849 274.628 386.667 271.274C387.484 267.863 387.893 263.167 387.893 257.185Z" fill="#00A0E0"/>
<path d="M512.413 306.329C503.677 306.329 495.989 305.406 489.348 303.561C482.758 301.716 476.628 299.424 470.957 296.685V266.997H473.563C479.284 272.308 485.593 276.389 492.49 279.241C499.386 282.092 506.078 283.518 512.566 283.518C514.201 283.518 516.346 283.322 519.003 282.931C521.71 282.539 523.881 281.924 525.516 281.086C527.508 280.135 529.194 278.822 530.573 277.144C531.953 275.411 532.642 273.147 532.642 270.351C532.642 267.22 531.519 264.676 529.271 262.72C527.023 260.763 524.341 259.337 521.225 258.443C517.342 257.324 513.179 256.262 508.735 255.256C504.341 254.249 500.229 253.019 496.398 251.566C487.56 248.155 481.225 243.571 477.394 237.812C473.563 232.053 471.647 224.841 471.647 216.175C471.647 204.49 476.168 195.041 485.21 187.829C494.252 180.561 505.542 176.927 519.079 176.927C525.874 176.927 532.617 177.682 539.309 179.191C546.052 180.701 552.08 182.741 557.393 185.313V213.827H554.864C550.624 209.857 545.439 206.503 539.309 203.763C533.23 201.024 526.972 199.654 520.535 199.654C518.032 199.654 515.784 199.85 513.792 200.241C511.8 200.632 509.705 201.387 507.509 202.505C505.721 203.4 504.162 204.742 502.834 206.531C501.557 208.264 500.919 210.221 500.919 212.401C500.919 215.588 501.94 218.132 503.984 220.033C506.078 221.878 510.088 223.555 516.014 225.065C519.846 226.015 523.524 226.938 527.049 227.832C530.625 228.727 534.43 229.957 538.466 231.522C546.384 234.653 552.259 238.874 556.09 244.186C559.973 249.441 561.914 256.402 561.914 265.068C561.914 277.48 557.444 287.46 548.504 295.007C539.616 302.555 527.585 306.329 512.413 306.329Z" fill="#00A0E0"/>
<path d="M601.914 304.065H575.094V209.885H601.914V304.065ZM602.68 196.467H574.328V173.572H602.68V196.467Z" fill="#00A0E0"/>
<path d="M669.882 279.492V259.868C665.336 260.371 661.658 260.819 658.848 261.21C656.038 261.546 653.28 262.244 650.572 263.307C648.222 264.201 646.383 265.571 645.055 267.416C643.778 269.205 643.139 271.609 643.139 274.628C643.139 279.045 644.212 282.092 646.358 283.769C648.554 285.391 651.773 286.202 656.013 286.202C658.363 286.202 660.764 285.615 663.216 284.44C665.668 283.266 667.89 281.617 669.882 279.492ZM669.882 294.085C668.043 295.762 666.383 297.272 664.902 298.613C663.471 299.955 661.53 301.297 659.078 302.639C656.677 303.925 654.327 304.903 652.028 305.574C649.78 306.245 646.613 306.58 642.526 306.58C634.915 306.58 628.58 303.785 623.523 298.194C618.516 292.603 616.013 285.559 616.013 277.06C616.013 270.072 617.29 264.425 619.845 260.12C622.399 255.815 626.077 252.404 630.879 249.888C635.732 247.317 641.53 245.528 648.273 244.521C655.017 243.515 662.271 242.732 670.036 242.173V241.67C670.036 236.47 668.273 232.892 664.748 230.935C661.275 228.922 656.038 227.916 649.04 227.916C645.872 227.916 642.169 228.559 637.929 229.845C633.689 231.075 629.551 232.668 625.515 234.625H623.216V211.898C625.873 211.059 630.164 210.081 636.09 208.963C642.016 207.789 647.992 207.202 654.021 207.202C668.835 207.202 679.614 209.913 686.357 215.336C693.152 220.704 696.549 228.922 696.549 239.993V304.065H669.882V294.085ZM691.875 168.792C691.364 178.129 689.244 184.978 685.514 189.339C681.785 193.644 676.6 195.796 669.959 195.796C667.507 195.796 665.183 195.265 662.986 194.203C660.789 193.085 658.899 191.994 657.316 190.932C655.783 189.87 654.072 188.808 652.181 187.745C650.342 186.627 648.784 186.068 647.507 186.068C644.953 186.068 643.216 186.963 642.297 188.752C641.377 190.485 640.815 193.001 640.611 196.299H624.519C624.825 188.137 626.92 181.623 630.802 176.759C634.685 171.839 639.87 169.379 646.358 169.379C648.81 169.379 651.083 169.854 653.178 170.805C655.272 171.755 657.29 172.845 659.231 174.075C660.764 175.026 662.45 176.032 664.289 177.095C666.128 178.157 667.635 178.688 668.81 178.688C671.262 178.688 672.999 177.793 674.02 176.004C675.093 174.215 675.681 171.811 675.783 168.792H691.875Z" fill="#00A0E0"/>
<path d="M799 257.017C799 272.504 795.118 284.72 787.353 293.665C779.639 302.555 768.707 307 754.556 307C740.508 307 729.575 302.555 721.759 293.665C713.994 284.72 710.112 272.504 710.112 257.017C710.112 241.362 713.994 229.118 721.759 220.284C729.575 211.395 740.508 206.95 754.556 206.95C768.655 206.95 779.588 211.423 787.353 220.368C795.118 229.258 799 241.474 799 257.017ZM771.491 257.185C771.491 251.594 771.056 246.953 770.188 243.263C769.371 239.517 768.221 236.526 766.74 234.29C765.156 231.942 763.368 230.32 761.376 229.426C759.384 228.475 757.11 228 754.556 228C752.155 228 749.984 228.419 748.043 229.258C746.101 230.041 744.313 231.578 742.679 233.87C741.146 236.051 739.92 239.042 739.001 242.844C738.081 246.646 737.621 251.426 737.621 257.185C737.621 262.943 738.055 267.612 738.924 271.19C739.792 274.712 740.916 277.536 742.296 279.66C743.726 281.841 745.514 283.434 747.659 284.44C749.805 285.447 752.181 285.95 754.786 285.95C756.931 285.95 759.103 285.447 761.299 284.44C763.547 283.434 765.335 281.924 766.663 279.912C768.247 277.508 769.447 274.628 770.265 271.274C771.082 267.863 771.491 263.167 771.491 257.185Z" fill="#00A0E0"/>
<path d="M88.8152 218.607C88.8152 224.422 87.9723 229.957 86.2865 235.212C84.6007 240.468 82.1742 244.857 79.0069 248.379C77.0657 250.559 74.9201 252.572 72.5702 254.417C70.2714 256.262 67.7171 257.828 64.9074 259.113C62.0978 260.399 59.0326 261.406 55.7121 262.133C52.4427 262.859 48.7645 263.223 44.6777 263.223H29.6587V304.065H1V179.191H45.2908C51.8807 179.191 57.5512 179.862 62.3021 181.204C67.1041 182.49 71.4463 184.558 75.3288 187.41C79.6199 190.541 82.9405 194.734 85.2904 199.989C87.6403 205.189 88.8152 211.395 88.8152 218.607ZM59.3902 219.362C59.3902 215.84 58.624 212.821 57.0914 210.305C55.5589 207.733 53.7198 205.972 51.5742 205.021C48.8667 203.735 46.2614 203.008 43.7582 202.841C41.3061 202.617 37.9601 202.505 33.72 202.505H29.6587V239.909H31.651C34.3586 239.909 36.9128 239.881 39.3138 239.825C41.7148 239.769 43.8093 239.573 45.5973 239.238C47.1298 238.958 48.739 238.427 50.4248 237.644C52.1617 236.806 53.4899 235.883 54.4094 234.877C56.3507 232.808 57.6534 230.656 58.3175 228.419C59.0326 226.183 59.3902 223.164 59.3902 219.362Z" stroke="#00A0E0" stroke-width="2" mask="url(#path-1-outside-1_2027_590)"/>
<path d="M185.213 257.017C185.213 272.504 181.33 284.72 173.565 293.665C165.852 302.555 154.919 307 140.769 307C126.72 307 115.788 302.555 107.972 293.665C100.207 284.72 96.3248 272.504 96.3248 257.017C96.3248 241.362 100.207 229.118 107.972 220.284C115.788 211.395 126.72 206.95 140.769 206.95C154.868 206.95 165.8 211.423 173.565 220.368C181.33 229.258 185.213 241.474 185.213 257.017ZM157.703 257.185C157.703 251.594 157.269 246.953 156.401 243.263C155.583 239.517 154.434 236.526 152.953 234.29C151.369 231.942 149.581 230.32 147.589 229.426C145.596 228.475 143.323 228 140.769 228C138.368 228 136.197 228.419 134.255 229.258C132.314 230.041 130.526 231.578 128.891 233.87C127.359 236.051 126.133 239.042 125.213 242.844C124.294 246.646 123.834 251.426 123.834 257.185C123.834 262.943 124.268 267.612 125.137 271.19C126.005 274.712 127.129 277.536 128.508 279.66C129.939 281.841 131.727 283.434 133.872 284.44C136.018 285.447 138.393 285.95 140.999 285.95C143.144 285.95 145.315 285.447 147.512 284.44C149.76 283.434 151.548 281.924 152.876 279.912C154.46 277.508 155.66 274.628 156.477 271.274C157.295 267.863 157.703 263.167 157.703 257.185Z" stroke="#00A0E0" stroke-width="2" mask="url(#path-1-outside-1_2027_590)"/>
<path d="M257.243 237.644H255.021C253.999 237.253 252.517 236.973 250.576 236.806C248.635 236.582 246.489 236.47 244.139 236.47C241.33 236.47 238.367 236.917 235.251 237.812C232.186 238.707 229.197 239.769 226.285 240.999V304.065H199.466V209.885H226.285V223.387C227.511 222.157 229.197 220.62 231.343 218.775C233.539 216.874 235.532 215.364 237.32 214.246C239.261 212.96 241.509 211.87 244.063 210.976C246.668 210.025 249.12 209.55 251.419 209.55C252.287 209.55 253.258 209.578 254.331 209.634C255.404 209.69 256.374 209.774 257.243 209.885V237.644Z" stroke="#00A0E0" stroke-width="2" mask="url(#path-1-outside-1_2027_590)"/>
<path d="M300.461 305.91C289.529 305.91 281.559 303.45 276.553 298.53C271.598 293.61 269.12 285.559 269.12 274.377V230.348H258.852V209.885H269.12V182.965H295.94V209.885H321.763V230.348H295.94V263.726C295.94 267.025 295.965 269.904 296.016 272.364C296.067 274.824 296.476 277.032 297.242 278.989C297.958 280.946 299.209 282.512 300.997 283.686C302.836 284.804 305.493 285.363 308.966 285.363C310.397 285.363 312.261 285.027 314.56 284.357C316.91 283.686 318.545 283.071 319.464 282.512H321.763V303.226C318.851 304.065 315.761 304.708 312.491 305.155C309.222 305.658 305.212 305.91 300.461 305.91Z" stroke="#00A0E0" stroke-width="2" mask="url(#path-1-outside-1_2027_590)"/>
<path d="M415.402 257.017C415.402 272.504 411.52 284.72 403.755 293.665C396.041 302.555 385.109 307 370.958 307C356.91 307 345.978 302.555 338.162 293.665C330.397 284.72 326.514 272.504 326.514 257.017C326.514 241.362 330.397 229.118 338.162 220.284C345.978 211.395 356.91 206.95 370.958 206.95C385.058 206.95 395.99 211.423 403.755 220.368C411.52 229.258 415.402 241.474 415.402 257.017ZM387.893 257.185C387.893 251.594 387.459 246.953 386.59 243.263C385.773 239.517 384.623 236.526 383.142 234.29C381.558 231.942 379.77 230.32 377.778 229.426C375.786 228.475 373.512 228 370.958 228C368.557 228 366.386 228.419 364.445 229.258C362.504 230.041 360.716 231.578 359.081 233.87C357.548 236.051 356.322 239.042 355.403 242.844C354.483 246.646 354.023 251.426 354.023 257.185C354.023 262.943 354.458 267.612 355.326 271.19C356.195 274.712 357.318 277.536 358.698 279.66C360.128 281.841 361.916 283.434 364.062 284.44C366.207 285.447 368.583 285.95 371.188 285.95C373.334 285.95 375.505 285.447 377.701 284.44C379.949 283.434 381.737 281.924 383.065 279.912C384.649 277.508 385.849 274.628 386.667 271.274C387.484 267.863 387.893 263.167 387.893 257.185Z" stroke="#00A0E0" stroke-width="2" mask="url(#path-1-outside-1_2027_590)"/>
<path d="M512.413 306.329C503.677 306.329 495.989 305.406 489.348 303.561C482.758 301.716 476.628 299.424 470.957 296.685V266.997H473.563C479.284 272.308 485.593 276.389 492.49 279.241C499.386 282.092 506.078 283.518 512.566 283.518C514.201 283.518 516.346 283.322 519.003 282.931C521.71 282.539 523.881 281.924 525.516 281.086C527.508 280.135 529.194 278.822 530.573 277.144C531.953 275.411 532.642 273.147 532.642 270.351C532.642 267.22 531.519 264.676 529.271 262.72C527.023 260.763 524.341 259.337 521.225 258.443C517.342 257.324 513.179 256.262 508.735 255.256C504.341 254.249 500.229 253.019 496.398 251.566C487.56 248.155 481.225 243.571 477.394 237.812C473.563 232.053 471.647 224.841 471.647 216.175C471.647 204.49 476.168 195.041 485.21 187.829C494.252 180.561 505.542 176.927 519.079 176.927C525.874 176.927 532.617 177.682 539.309 179.191C546.052 180.701 552.08 182.741 557.393 185.313V213.827H554.864C550.624 209.857 545.439 206.503 539.309 203.763C533.23 201.024 526.972 199.654 520.535 199.654C518.032 199.654 515.784 199.85 513.792 200.241C511.8 200.632 509.705 201.387 507.509 202.505C505.721 203.4 504.162 204.742 502.834 206.531C501.557 208.264 500.919 210.221 500.919 212.401C500.919 215.588 501.94 218.132 503.984 220.033C506.078 221.878 510.088 223.555 516.014 225.065C519.846 226.015 523.524 226.938 527.049 227.832C530.625 228.727 534.43 229.957 538.466 231.522C546.384 234.653 552.259 238.874 556.09 244.186C559.973 249.441 561.914 256.402 561.914 265.068C561.914 277.48 557.444 287.46 548.504 295.007C539.616 302.555 527.585 306.329 512.413 306.329Z" stroke="#00A0E0" stroke-width="2" mask="url(#path-1-outside-1_2027_590)"/>
<path d="M601.914 304.065H575.094V209.885H601.914V304.065ZM602.68 196.467H574.328V173.572H602.68V196.467Z" stroke="#00A0E0" stroke-width="2" mask="url(#path-1-outside-1_2027_590)"/>
<path d="M669.882 279.492V259.868C665.336 260.371 661.658 260.819 658.848 261.21C656.038 261.546 653.28 262.244 650.572 263.307C648.222 264.201 646.383 265.571 645.055 267.416C643.778 269.205 643.139 271.609 643.139 274.628C643.139 279.045 644.212 282.092 646.358 283.769C648.554 285.391 651.773 286.202 656.013 286.202C658.363 286.202 660.764 285.615 663.216 284.44C665.668 283.266 667.89 281.617 669.882 279.492ZM669.882 294.085C668.043 295.762 666.383 297.272 664.902 298.613C663.471 299.955 661.53 301.297 659.078 302.639C656.677 303.925 654.327 304.903 652.028 305.574C649.78 306.245 646.613 306.58 642.526 306.58C634.915 306.58 628.58 303.785 623.523 298.194C618.516 292.603 616.013 285.559 616.013 277.06C616.013 270.072 617.29 264.425 619.845 260.12C622.399 255.815 626.077 252.404 630.879 249.888C635.732 247.317 641.53 245.528 648.273 244.521C655.017 243.515 662.271 242.732 670.036 242.173V241.67C670.036 236.47 668.273 232.892 664.748 230.935C661.275 228.922 656.038 227.916 649.04 227.916C645.872 227.916 642.169 228.559 637.929 229.845C633.689 231.075 629.551 232.668 625.515 234.625H623.216V211.898C625.873 211.059 630.164 210.081 636.09 208.963C642.016 207.789 647.992 207.202 654.021 207.202C668.835 207.202 679.614 209.913 686.357 215.336C693.152 220.704 696.549 228.922 696.549 239.993V304.065H669.882V294.085ZM691.875 168.792C691.364 178.129 689.244 184.978 685.514 189.339C681.785 193.644 676.6 195.796 669.959 195.796C667.507 195.796 665.183 195.265 662.986 194.203C660.789 193.085 658.899 191.994 657.316 190.932C655.783 189.87 654.072 188.808 652.181 187.745C650.342 186.627 648.784 186.068 647.507 186.068C644.953 186.068 643.216 186.963 642.297 188.752C641.377 190.485 640.815 193.001 640.611 196.299H624.519C624.825 188.137 626.92 181.623 630.802 176.759C634.685 171.839 639.87 169.379 646.358 169.379C648.81 169.379 651.083 169.854 653.178 170.805C655.272 171.755 657.29 172.845 659.231 174.075C660.764 175.026 662.45 176.032 664.289 177.095C666.128 178.157 667.635 178.688 668.81 178.688C671.262 178.688 672.999 177.793 674.02 176.004C675.093 174.215 675.681 171.811 675.783 168.792H691.875Z" stroke="#00A0E0" stroke-width="2" mask="url(#path-1-outside-1_2027_590)"/>
<path d="M799 257.017C799 272.504 795.118 284.72 787.353 293.665C779.639 302.555 768.707 307 754.556 307C740.508 307 729.575 302.555 721.759 293.665C713.994 284.72 710.112 272.504 710.112 257.017C710.112 241.362 713.994 229.118 721.759 220.284C729.575 211.395 740.508 206.95 754.556 206.95C768.655 206.95 779.588 211.423 787.353 220.368C795.118 229.258 799 241.474 799 257.017ZM771.491 257.185C771.491 251.594 771.056 246.953 770.188 243.263C769.371 239.517 768.221 236.526 766.74 234.29C765.156 231.942 763.368 230.32 761.376 229.426C759.384 228.475 757.11 228 754.556 228C752.155 228 749.984 228.419 748.043 229.258C746.101 230.041 744.313 231.578 742.679 233.87C741.146 236.051 739.92 239.042 739.001 242.844C738.081 246.646 737.621 251.426 737.621 257.185C737.621 262.943 738.055 267.612 738.924 271.19C739.792 274.712 740.916 277.536 742.296 279.66C743.726 281.841 745.514 283.434 747.659 284.44C749.805 285.447 752.181 285.95 754.786 285.95C756.931 285.95 759.103 285.447 761.299 284.44C763.547 283.434 765.335 281.924 766.663 279.912C768.247 277.508 769.447 274.628 770.265 271.274C771.082 267.863 771.491 263.167 771.491 257.185Z" stroke="#00A0E0" stroke-width="2" mask="url(#path-1-outside-1_2027_590)"/>
<path d="M353.73 107.442C496.746 -0.120422 571.258 41.9433 625.339 64.7776C576.065 20.8272 514.172 -50.5964 353.73 56.9654C216.124 139.289 177.065 131.477 95.9429 125.468C212.518 197.577 325.767 128.473 353.73 107.442Z" fill="#00A0E0" stroke="#00A0E0"/>
<path d="M348.923 138.088C422.233 111.648 518.378 61.1722 655.985 115.855C621.733 63.5754 516.695 -8.0515 348.923 138.088Z" fill="#00A0E0" stroke="#00A0E0"/>
</svg>
