<svg width="798" height="307" viewBox="0 0 798 307" fill="none" xmlns="http://www.w3.org/2000/svg">
<path d="M87.8152 218.607C87.8152 224.422 86.9723 229.957 85.2865 235.212C83.6007 240.468 81.1742 244.857 78.0069 248.379C76.0657 250.559 73.9201 252.572 71.5702 254.417C69.2714 256.262 66.7171 257.828 63.9074 259.113C61.0978 260.399 58.0326 261.406 54.7121 262.133C51.4427 262.859 47.7645 263.223 43.6777 263.223H28.6587V304.065H0V179.191H44.2908C50.8807 179.191 56.5512 179.862 61.3021 181.204C66.1041 182.49 70.4463 184.558 74.3288 187.41C78.6199 190.541 81.9405 194.734 84.2904 199.989C86.6403 205.189 87.8152 211.395 87.8152 218.607ZM58.3902 219.362C58.3902 215.84 57.624 212.821 56.0914 210.305C54.5589 207.733 52.7198 205.972 50.5742 205.021C47.8667 203.735 45.2614 203.008 42.7582 202.841C40.3061 202.617 36.9601 202.505 32.72 202.505H28.6587V239.909H30.651C33.3586 239.909 35.9128 239.881 38.3138 239.825C40.7148 239.769 42.8093 239.573 44.5973 239.238C46.1298 238.958 47.739 238.427 49.4248 237.644C51.1617 236.806 52.4899 235.883 53.4094 234.877C55.3507 232.808 56.6534 230.656 57.3175 228.419C58.0326 226.183 58.3902 223.164 58.3902 219.362Z" fill="white"/>
<path d="M184.213 257.017C184.213 272.504 180.33 284.72 172.565 293.665C164.852 302.555 153.919 307 139.769 307C125.72 307 114.788 302.555 106.972 293.665C99.2072 284.72 95.3248 272.504 95.3248 257.017C95.3248 241.362 99.2072 229.118 106.972 220.284C114.788 211.395 125.72 206.95 139.769 206.95C153.868 206.95 164.8 211.423 172.565 220.368C180.33 229.258 184.213 241.474 184.213 257.017ZM156.703 257.185C156.703 251.594 156.269 246.953 155.401 243.263C154.583 239.517 153.434 236.526 151.953 234.29C150.369 231.942 148.581 230.32 146.589 229.426C144.596 228.475 142.323 228 139.769 228C137.368 228 135.197 228.419 133.255 229.258C131.314 230.041 129.526 231.578 127.891 233.87C126.359 236.051 125.133 239.042 124.213 242.844C123.294 246.646 122.834 251.426 122.834 257.185C122.834 262.943 123.268 267.612 124.137 271.19C125.005 274.712 126.129 277.536 127.508 279.66C128.939 281.841 130.727 283.434 132.872 284.44C135.018 285.447 137.393 285.95 139.999 285.95C142.144 285.95 144.315 285.447 146.512 284.44C148.76 283.434 150.548 281.924 151.876 279.912C153.46 277.508 154.66 274.628 155.477 271.274C156.295 267.863 156.703 263.167 156.703 257.185Z" fill="white"/>
<path d="M256.243 237.644H254.021C252.999 237.253 251.517 236.973 249.576 236.806C247.635 236.582 245.489 236.47 243.139 236.47C240.33 236.47 237.367 236.917 234.251 237.812C231.186 238.707 228.197 239.769 225.285 240.999V304.065H198.466V209.885H225.285V223.387C226.511 222.157 228.197 220.62 230.343 218.775C232.539 216.874 234.532 215.364 236.32 214.246C238.261 212.96 240.509 211.87 243.063 210.976C245.668 210.025 248.12 209.55 250.419 209.55C251.287 209.55 252.258 209.578 253.331 209.634C254.404 209.69 255.374 209.774 256.243 209.885V237.644Z" fill="white"/>
<path d="M299.461 305.91C288.529 305.91 280.559 303.45 275.553 298.53C270.598 293.61 268.12 285.559 268.12 274.377V230.348H257.852V209.885H268.12V182.965H294.94V209.885H320.763V230.348H294.94V263.726C294.94 267.025 294.965 269.904 295.016 272.364C295.067 274.824 295.476 277.032 296.242 278.989C296.958 280.946 298.209 282.512 299.997 283.686C301.836 284.804 304.493 285.363 307.966 285.363C309.397 285.363 311.261 285.027 313.56 284.357C315.91 283.686 317.545 283.071 318.464 282.512H320.763V303.226C317.851 304.065 314.761 304.708 311.491 305.155C308.222 305.658 304.212 305.91 299.461 305.91Z" fill="white"/>
<path d="M414.402 257.017C414.402 272.504 410.52 284.72 402.755 293.665C395.041 302.555 384.109 307 369.958 307C355.91 307 344.978 302.555 337.162 293.665C329.397 284.72 325.514 272.504 325.514 257.017C325.514 241.362 329.397 229.118 337.162 220.284C344.978 211.395 355.91 206.95 369.958 206.95C384.058 206.95 394.99 211.423 402.755 220.368C410.52 229.258 414.402 241.474 414.402 257.017ZM386.893 257.185C386.893 251.594 386.459 246.953 385.59 243.263C384.773 239.517 383.623 236.526 382.142 234.29C380.558 231.942 378.77 230.32 376.778 229.426C374.786 228.475 372.512 228 369.958 228C367.557 228 365.386 228.419 363.445 229.258C361.504 230.041 359.716 231.578 358.081 233.87C356.548 236.051 355.322 239.042 354.403 242.844C353.483 246.646 353.023 251.426 353.023 257.185C353.023 262.943 353.458 267.612 354.326 271.19C355.195 274.712 356.318 277.536 357.698 279.66C359.128 281.841 360.916 283.434 363.062 284.44C365.207 285.447 367.583 285.95 370.188 285.95C372.334 285.95 374.505 285.447 376.701 284.44C378.949 283.434 380.737 281.924 382.065 279.912C383.649 277.508 384.849 274.628 385.667 271.274C386.484 267.863 386.893 263.167 386.893 257.185Z" fill="white"/>
<path d="M511.413 306.329C502.677 306.329 494.989 305.406 488.348 303.561C481.758 301.716 475.628 299.424 469.957 296.685V266.997H472.563C478.284 272.308 484.593 276.389 491.49 279.241C498.386 282.092 505.078 283.518 511.566 283.518C513.201 283.518 515.346 283.322 518.003 282.931C520.71 282.539 522.881 281.924 524.516 281.086C526.508 280.135 528.194 278.822 529.573 277.144C530.953 275.411 531.642 273.147 531.642 270.351C531.642 267.22 530.519 264.676 528.271 262.72C526.023 260.763 523.341 259.337 520.225 258.443C516.342 257.324 512.179 256.262 507.735 255.256C503.341 254.249 499.229 253.019 495.398 251.566C486.56 248.155 480.225 243.571 476.394 237.812C472.563 232.053 470.647 224.841 470.647 216.175C470.647 204.49 475.168 195.041 484.21 187.829C493.252 180.561 504.542 176.927 518.079 176.927C524.874 176.927 531.617 177.682 538.309 179.191C545.052 180.701 551.08 182.741 556.393 185.313V213.827H553.864C549.624 209.857 544.439 206.503 538.309 203.763C532.23 201.024 525.972 199.654 519.535 199.654C517.032 199.654 514.784 199.85 512.792 200.241C510.8 200.632 508.705 201.387 506.509 202.505C504.721 203.4 503.162 204.742 501.834 206.531C500.557 208.264 499.919 210.221 499.919 212.401C499.919 215.588 500.94 218.132 502.984 220.033C505.078 221.878 509.088 223.555 515.014 225.065C518.846 226.015 522.524 226.938 526.049 227.832C529.625 228.727 533.43 229.957 537.466 231.522C545.384 234.653 551.259 238.874 555.09 244.186C558.973 249.441 560.914 256.402 560.914 265.068C560.914 277.48 556.444 287.46 547.504 295.007C538.616 302.555 526.585 306.329 511.413 306.329Z" fill="white"/>
<path d="M600.914 304.065H574.094V209.885H600.914V304.065ZM601.68 196.467H573.328V173.572H601.68V196.467Z" fill="white"/>
<path d="M668.882 279.492V259.868C664.336 260.371 660.658 260.819 657.848 261.21C655.038 261.546 652.28 262.244 649.572 263.307C647.222 264.201 645.383 265.571 644.055 267.416C642.778 269.205 642.139 271.609 642.139 274.628C642.139 279.045 643.212 282.092 645.358 283.769C647.554 285.391 650.773 286.202 655.013 286.202C657.363 286.202 659.764 285.615 662.216 284.44C664.668 283.266 666.89 281.617 668.882 279.492ZM668.882 294.085C667.043 295.762 665.383 297.272 663.902 298.613C662.471 299.955 660.53 301.297 658.078 302.639C655.677 303.925 653.327 304.903 651.028 305.574C648.78 306.245 645.613 306.58 641.526 306.58C633.915 306.58 627.58 303.785 622.523 298.194C617.516 292.603 615.013 285.559 615.013 277.06C615.013 270.072 616.29 264.425 618.845 260.12C621.399 255.815 625.077 252.404 629.879 249.888C634.732 247.317 640.53 245.528 647.273 244.521C654.017 243.515 661.271 242.732 669.036 242.173V241.67C669.036 236.47 667.273 232.892 663.748 230.935C660.275 228.922 655.038 227.916 648.04 227.916C644.872 227.916 641.169 228.559 636.929 229.845C632.689 231.075 628.551 232.668 624.515 234.625H622.216V211.898C624.873 211.059 629.164 210.081 635.09 208.963C641.016 207.789 646.992 207.202 653.021 207.202C667.835 207.202 678.614 209.913 685.357 215.336C692.152 220.704 695.549 228.922 695.549 239.993V304.065H668.882V294.085ZM690.875 168.792C690.364 178.129 688.244 184.978 684.514 189.339C680.785 193.644 675.6 195.796 668.959 195.796C666.507 195.796 664.183 195.265 661.986 194.203C659.789 193.085 657.899 191.994 656.316 190.932C654.783 189.87 653.072 188.808 651.181 187.745C649.342 186.627 647.784 186.068 646.507 186.068C643.953 186.068 642.216 186.963 641.297 188.752C640.377 190.485 639.815 193.001 639.611 196.299H623.519C623.825 188.137 625.92 181.623 629.802 176.759C633.685 171.839 638.87 169.379 645.358 169.379C647.81 169.379 650.083 169.854 652.178 170.805C654.272 171.755 656.29 172.845 658.231 174.075C659.764 175.026 661.45 176.032 663.289 177.095C665.128 178.157 666.635 178.688 667.81 178.688C670.262 178.688 671.999 177.793 673.02 176.004C674.093 174.215 674.681 171.811 674.783 168.792H690.875Z" fill="white"/>
<path d="M798 257.017C798 272.504 794.118 284.72 786.353 293.665C778.639 302.555 767.707 307 753.556 307C739.508 307 728.575 302.555 720.759 293.665C712.994 284.72 709.112 272.504 709.112 257.017C709.112 241.362 712.994 229.118 720.759 220.284C728.575 211.395 739.508 206.95 753.556 206.95C767.655 206.95 778.588 211.423 786.353 220.368C794.118 229.258 798 241.474 798 257.017ZM770.491 257.185C770.491 251.594 770.056 246.953 769.188 243.263C768.371 239.517 767.221 236.526 765.74 234.29C764.156 231.942 762.368 230.32 760.376 229.426C758.384 228.475 756.11 228 753.556 228C751.155 228 748.984 228.419 747.043 229.258C745.101 230.041 743.313 231.578 741.679 233.87C740.146 236.051 738.92 239.042 738.001 242.844C737.081 246.646 736.621 251.426 736.621 257.185C736.621 262.943 737.055 267.612 737.924 271.19C738.792 274.712 739.916 277.536 741.296 279.66C742.726 281.841 744.514 283.434 746.659 284.44C748.805 285.447 751.181 285.95 753.786 285.95C755.931 285.95 758.103 285.447 760.299 284.44C762.547 283.434 764.335 281.924 765.663 279.912C767.247 277.508 768.447 274.628 769.265 271.274C770.082 267.863 770.491 263.167 770.491 257.185Z" fill="white"/>
<path d="M352.73 107.442C495.746 -0.120422 570.258 41.9433 624.339 64.7776C575.065 20.8272 513.172 -50.5964 352.73 56.9654C215.124 139.289 176.065 131.477 94.9429 125.468C211.518 197.577 324.767 128.473 352.73 107.442Z" fill="white" stroke="white"/>
<path d="M347.923 138.088C421.233 111.648 517.378 61.1722 654.985 115.855C620.733 63.5754 515.695 -8.0515 347.923 138.088Z" fill="white" stroke="white"/>
</svg>
